PathFileType	4	(X/Y/Z)	Patient4_TMGait_0pt7_01_left_33.trc.trc
DataRate	CameraRate	NumFrames	NumMarkers	Units	OrigDataRate	OrigDataStartFrame	OrigNumFrames
90.322580645161	90.322580645161	4	33	mm	90.322580645161	124	       141
Frame#	Time	Sacral			L.Shoulder			Chest			R.Shoulder			Neck			R.ASIS			L.ASIS			R.Thigh.Superior			R.Thigh.Lateral			R.Thigh.Inferior			R.Patella			L.Thigh.Superior			L.Thigh.Lateral			L.Thigh.Inferior			L.Patella			L.Shank.Superior			L.Shank.Lateral			L.Shank.Inferior			R.Shank.Superior			R.Shank.Lateral			R.Shank.Inferior			R.Heel			R.Midfoot.Superior			R.Midfoot.Lateral			R.Toe			L.Heel			L.Midfoot.Lateral			L.Midfoot.Superior			L.Toe			L.Elbow			L.Wrist			R.Elbow			R.Wrist			
		X1	Y1	Z1	X2	Y2	Z2	X3	Y3	Z3	X4	Y4	Z4	X5	Y5	Z5	X6	Y6	Z6	X7	Y7	Z7	X8	Y8	Z8	X9	Y9	Z9	X10	Y10	Z10	X11	Y11	Z11	X12	Y12	Z12	X13	Y13	Z13	X14	Y14	Z14	X15	Y15	Z15	X16	Y16	Z16	X17	Y17	Z17	X18	Y18	Z18	X19	Y19	Z19	X20	Y20	Z20	X21	Y21	Z21	X22	Y22	Z22	X23	Y23	Z23	X24	Y24	Z24	X25	Y25	Z25	X26	Y26	Z26	X27	Y27	Z27	X28	Y28	Z28	X29	Y29	Z29	X30	Y30	Z30	X31	Y31	Z31	X32	Y32	Z32	X33	Y33	Z33	

124	39.511785714286	842.424148432185	1001.720167185973	514.970185520793	1015.022625604132	1417.032673921479	308.754271331811	1137.306740485388	1339.622144220567	452.457699179295	1087.303687614473	1422.248852641475	635.138515709976	1046.933923269509	1477.354631631117	461.861630354462	1073.049733993448	925.976520361051	609.632620868076	1035.408139614208	940.736165636439	335.422216193092	1058.598341129502	712.938225704181	586.117017799545	949.986669520275	625.793506984381	652.040660513548	1003.098546687449	556.495916234690	570.828772862576	979.019510881727	472.217546854845	576.128013317223	1110.592162947553	764.685178617707	368.401846745692	1058.977895278970	634.595058397849	293.458993139366	1164.669961370259	578.119847832029	352.400022348795	1190.028474974299	513.110007677485	351.077715303998	1175.843868210946	439.963577093740	340.369476350453	1110.784642377591	308.562520328570	292.985697663695	1201.192227143491	212.131949108490	346.779093283415	936.628295614526	390.703485987654	585.240312343735	849.715070388781	301.486433122848	650.296872891566	871.726809888140	200.708485349643	586.565057510685	714.460382488973	46.791904120854	557.892644505141	886.706902636578	96.472698316134	594.864536760020	796.468530311015	38.068154979416	633.202775489029	1004.996390497900	39.501536407294	626.075288284282	1120.295279991711	38.217342191988	388.113989058160	1192.810468422344	40.109252522228	306.302549804081	1267.226027925927	112.320844587007	327.501314760330	1399.179954796858	75.944819181496	298.732625828392	839.038794714470	1113.969234340794	218.345523371359	771.925719896060	863.377718747170	209.159942875468	1218.507502790154	1113.254084292033	755.481352827594	1451.136600093068	1157.820947841749	664.814145081329	
125	39.522857142857	844.251611446782	1000.228650127884	512.002084859471	1015.023004888875	1415.940259624774	306.157183201805	1137.649047487833	1339.218220218116	449.971785383402	1086.870675528717	1421.534245636826	632.573080221568	1046.384063253659	1476.412852287404	459.291605244596	1074.631575833296	924.492106967583	607.461370246440	1037.988892443830	939.374175176680	333.337122027497	1059.219326754316	711.220782480519	584.379094920217	949.842185805741	624.696008408980	650.232332445045	1002.785585564062	554.800736491601	569.298811948212	977.937603540130	470.003696980865	574.555153889642	1113.384552858666	762.764867945865	366.475532816396	1059.812767894622	632.541167716554	293.095859087071	1165.751656978641	576.081942432786	351.672203765642	1189.654232114780	510.186770195842	351.478203206439	1175.136936978953	436.921764969824	340.692181817239	1108.741304008053	306.268706930046	293.339028197382	1197.270359614214	208.886870708146	348.025468984439	934.095071096447	389.190846954789	583.950042404882	845.827556543334	301.545036375906	649.520984754883	866.005046424286	200.300296878196	586.120706284184	706.735562561436	47.900105023766	558.127712108593	879.288762635683	96.614292345446	594.845013340607	788.806890131531	38.549751635009	633.312682746515	997.311776379219	39.213898654726	626.130855434735	1112.704379621473	37.734229361493	389.394126727147	1185.132872886179	38.404662329004	307.355232284327	1261.691211322896	107.928026991556	329.507801963297	1392.793162160767	67.807581356410	300.199250383358	837.991063045480	1113.603064231214	216.775701425606	770.229446065860	862.990458498442	209.095661102468	1221.342251415185	1113.196254914185	750.049598050386	1449.819099842344	1168.880627032404	656.859799539536	
126	39.533928571429	845.877787993718	998.853226551211	508.961360377900	1015.156591314110	1414.900533511286	303.467422569529	1138.052582264421	1338.838323480009	447.445232086738	1086.531412710546	1420.920116822645	629.947995441218	1045.997926366311	1475.582118557291	456.595397635872	1076.078471819717	923.118199326272	605.269082236165	1040.465511888955	938.273164060704	331.256835468727	1060.172559406488	709.698019491355	582.565110103098	950.261729363385	623.572692022654	648.280068875904	1003.224702849470	553.155806782925	567.646346389669	977.703378004086	467.637641880003	572.918386590456	1116.322518597644	761.372556106283	364.729491544989	1061.446080416224	631.252765695828	292.378029757888	1167.379105497562	574.708910290157	350.978186999519	1189.911437057009	507.881199016683	351.700640102585	1174.963465604685	434.423073779453	340.818126685636	1107.234573906477	304.683821959843	293.031721477483	1193.357343965844	206.119029874088	348.901858420208	932.193235312609	387.639022757329	582.589456260555	842.417062705022	301.751544874018	648.644050195049	860.609759658502	200.015864283141	585.644740690405	699.093055476765	49.474538669534	558.393653958694	872.061402067708	96.833357031758	594.861956695714	781.218950205928	39.272222249144	633.430831977819	989.673916392624	38.891367435154	626.186722646774	1104.771537998983	37.539435497342	390.072646001780	1177.239260159120	37.132758909408	307.931859962936	1255.720153052847	104.189872225045	331.117754254274	1386.070805217086	60.667441307156	301.499949649447	837.650259729933	1112.805159719821	215.123336699999	769.493601370283	862.110969263495	208.899005279296	1223.744125001347	1112.991731865282	744.746910214963	1447.850697324286	1178.743177521994	649.136923687947	
127	39.545000000000	847.284967301731	997.669384178292	505.894368922136	1015.409654561294	1413.993458645194	300.716481767847	1138.505696579812	1338.536053852227	444.888105593682	1086.330382590289	1420.481041322606	627.276442480191	1045.804446770748	1474.934746766881	453.796547064290	1077.381852640042	921.951278432632	603.029329846091	1042.763710464933	937.525716786051	329.131102479177	1061.434712660411	708.457353305246	580.652261677746	951.247813207422	622.499099409219	646.195590438665	1004.424044589826	551.637454921528	565.894973866964	978.351039670648	465.191906172964	571.298071343587	1119.298118344214	760.619363005228	363.156464580399	1063.829044782210	630.771755223992	291.281709359252	1169.457303144335	574.025442638048	350.264708209492	1190.746311578116	506.244015961741	351.664801687387	1175.267136289166	432.505658734529	340.722678821210	1106.215316713308	303.813687294301	292.129695184796	1189.485773501798	203.894692497448	349.414227524864	930.939679147362	386.132480073637	581.224058539649	839.493156622350	302.201532333729	647.692905365314	855.590847331571	199.945306593564	585.178329408285	691.585492449521	51.642111829408	558.689925068678	865.091491373168	97.150525619480	594.942574491597	773.735310451655	40.305953670975	633.560118081800	982.084475887951	38.542706204931	626.238560852403	1096.742258510159	37.567299782961	390.261119472015	1169.330285593985	36.276564465852	308.111392800976	1249.401217831617	101.247064328270	332.289471910180	1379.135257149811	54.876752375538	302.541190246904	838.041537573166	1111.630877580103	213.387647786303	769.757329786365	860.786789946357	208.538124481845	1225.640547665993	1112.667205436002	739.642758635019	1445.320840231989	1187.361740944284	641.695014660478	
